<svg xmlns="http://www.w3.org/2000/svg" width="173.127" height="24" viewBox="0 0 173.127 24">
  <g id="Group_2778" data-name="Group 2778" transform="translate(-83 -30)">
    <g id="Group_643" data-name="Group 643" transform="translate(210.098 30.811)">
      <path id="Path_1389" data-name="Path 1389" d="M379.7,60.265h0A2.265,2.265,0,0,1,381.965,58H398.19a2.265,2.265,0,0,1,2.265,2.265h0a2.265,2.265,0,0,1-2.265,2.265H381.965A2.265,2.265,0,0,1,379.7,60.265Z" transform="translate(-379.7 -40.051)" fill="#ee4748"/>
      <path id="Path_1390" data-name="Path 1390" d="M379.7,33.665h0a2.265,2.265,0,0,1,2.265-2.265H398.19a2.265,2.265,0,0,1,2.265,2.265h0a2.265,2.265,0,0,1-2.265,2.265H381.965A2.265,2.265,0,0,1,379.7,33.665Z" transform="translate(-379.7 -22.442)" fill="#ee4748"/>
      <path id="Path_1391" data-name="Path 1391" d="M379.7,7.165h0A2.265,2.265,0,0,1,381.965,4.9H398.19a2.265,2.265,0,0,1,2.265,2.265h0A2.265,2.265,0,0,1,398.19,9.43H381.965A2.309,2.309,0,0,1,379.7,7.165Z" transform="translate(-379.7 -4.9)" fill="#ee4748"/>
    </g>
    <path id="Path_1392" data-name="Path 1392" d="M175.248,4.9H157.265a2.265,2.265,0,1,0,0,4.53h6.727V25.148a2.265,2.265,0,1,0,4.53,0V9.4h6.727a2.248,2.248,0,1,0,0-4.5Z" transform="translate(-20.857 25.911)" fill="#fff"/>
    <path id="Path_1393" data-name="Path 1393" d="M244.962,24.234,236.579,6.285A2.244,2.244,0,0,0,234.551,5h-2.366a2.244,2.244,0,0,0-2.028,1.285l-8.383,17.983a2.257,2.257,0,0,0,2.028,3.211h0a2.244,2.244,0,0,0,2.028-1.285l7.5-16.09,7.5,16.09a2.244,2.244,0,0,0,2.028,1.285h.034A2.308,2.308,0,0,0,244.962,24.234Z" transform="translate(-64.914 25.845)" fill="#fff"/>
    <path id="Path_1394" data-name="Path 1394" d="M323.561,4.9h-9.769a8.871,8.871,0,0,0-4.462,1.183,9.329,9.329,0,0,0-3.211,3.076,8.852,8.852,0,0,0-1.318,4.7V25.08a2.145,2.145,0,0,0,.676,1.589,2.247,2.247,0,0,0,3.853-1.589V18.387h8.992a2.265,2.265,0,1,0,0-4.53H309.33A4.458,4.458,0,0,1,313.792,9.4h9.769a2.164,2.164,0,0,0,2.062-2.265A2.177,2.177,0,0,0,323.561,4.9Z" transform="translate(-120.02 25.911)" fill="#fff"/>
    <path id="Path_1395" data-name="Path 1395" d="M471.2,17.745a6.406,6.406,0,0,0,1.927-1.352A6.74,6.74,0,0,0,468.361,4.9H454.4V18.387h0v6.761a2.265,2.265,0,0,0,4.53,0V18.387h7.47l4.563,7.876a2.228,2.228,0,0,0,1.961,1.115,2.271,2.271,0,0,0,1.96-3.38Zm-7.437-3.887H458.9V9.4h9.5a2.251,2.251,0,0,1,2.231,2.231,2.213,2.213,0,0,1-1.69,2.163,2.626,2.626,0,0,1-.541.068Z" transform="translate(-219.051 25.911)" fill="#fff"/>
    <path id="Path_1396" data-name="Path 1396" d="M23.914,22.949H14.923a6.727,6.727,0,0,1,0-13.454h8.992A2.249,2.249,0,0,0,25.5,8.854,2.247,2.247,0,0,0,23.914,5H14.923a11.223,11.223,0,1,0,0,22.445h8.992a2.145,2.145,0,0,0,1.589-.676,2.28,2.28,0,0,0,.676-1.589A2.236,2.236,0,0,0,23.914,22.949Z" transform="translate(79.3 25.845)" fill="#fff"/>
    <path id="Path_1397" data-name="Path 1397" d="M77.813,19.368a12.684,12.684,0,0,1-.913-4.834A12.685,12.685,0,0,1,77.813,9.7a11.532,11.532,0,0,1,2.5-3.82,11.272,11.272,0,0,1,3.854-2.468A12.858,12.858,0,0,1,89.035,2.5a12.65,12.65,0,0,1,6.22,1.521A11.147,11.147,0,0,1,99.582,8.28a12.227,12.227,0,0,1,1.555,6.22,12.227,12.227,0,0,1-1.555,6.22,10.925,10.925,0,0,1-4.327,4.259,12.65,12.65,0,0,1-6.22,1.521,12.984,12.984,0,0,1-4.868-.913,11.272,11.272,0,0,1-3.854-2.468A10.162,10.162,0,0,1,77.813,19.368Zm4.158-4.834A7.966,7.966,0,0,0,83.9,20.01a7.1,7.1,0,0,0,10.208,0,7.966,7.966,0,0,0,1.927-5.476,7.849,7.849,0,0,0-1.927-5.476,7.1,7.1,0,0,0-10.208,0A7.907,7.907,0,0,0,81.97,14.534Z" transform="translate(30.843 27.5)" fill="#fff"/>
  </g>
</svg>
